<?xml version="1.0" encoding="UTF-8"?>
<svg id="OBJECTS" xmlns="http://www.w3.org/2000/svg" viewBox="0 0 110.56 110.56">
  <defs>
    <style>
      .cls-1 {
        fill: #d6d6d6;
      }

      .cls-1, .cls-2 {
        stroke-width: 0px;
      }

      .cls-2 {
        fill: #bfbfbf;
      }
    </style>
  </defs>
  <g>
    <circle class="cls-1" cx="55.28" cy="55.28" r="53.2" transform="translate(-10.73 97.17) rotate(-77.4)"/>
    <circle class="cls-1" cx="55.28" cy="55.28" r="53.2" transform="translate(-10.73 97.17) rotate(-77.4)"/>
  </g>
  <path class="cls-2" d="M52.45,68.61c-3.15,0-5.71-.72-7.66-2.16-1.95-1.44-2.93-3.53-2.93-6.27,0-5.55,2.3-10.04,6.89-13.47,3.43-2.47,6.77-4.58,10.02-6.32,3.26-1.75,6.08-3.96,8.48-6.63,1.16-1.17,1.82-2.38,1.95-3.65.14-1.27-.24-2.24-1.13-2.93-.82-.69-1.85-.91-3.08-.67-1.23.24-2.43.94-3.6,2.11-1.3,1.1-2.37,2.2-3.19,3.29-.82,1.1-1.68,2.33-2.57,3.7-1.44,2.13-3.27,4.16-5.5,6.12-2.23,1.95-4.75,2.93-7.56,2.93-3.56,0-6.36-.98-8.38-2.93-2.02-1.95-3.03-4.61-3.03-7.97,0-2.81,1.01-5.43,3.03-7.87,2.02-2.43,4.87-4.4,8.53-5.91,3.67-1.51,7.93-2.26,12.8-2.26,8.43,0,14.51,1.63,18.25,4.88,3.74,3.26,5.6,7.39,5.6,12.39,0,3.84-.82,6.98-2.47,9.41-1.64,2.43-4.46,4.92-8.43,7.45-1.99,1.3-3.41,2.59-4.27,3.86-.86,1.27-1.28,2.76-1.28,4.47,0,2.74-.96,4.83-2.88,6.27-1.92,1.44-4.46,2.16-7.61,2.16ZM39.5,86.91c0-3.63,1.16-6.58,3.5-8.84,2.33-2.26,5.48-3.39,9.46-3.39s6.89,1.12,9.15,3.34c2.26,2.23,3.39,5.16,3.39,8.79s-1.1,6.44-3.29,8.64c-2.19,2.19-5.28,3.29-9.25,3.29s-7.3-1.08-9.56-3.24c-2.26-2.16-3.39-5.02-3.39-8.59Z"/>
</svg>